<?xml version="1.0" encoding="utf-8"?>
<!-- Generator: Adobe Illustrator 24.3.0, SVG Export Plug-In . SVG Version: 6.00 Build 0)  -->
<svg version="1.1" id="Capa_1" xmlns="http://www.w3.org/2000/svg" xmlns:xlink="http://www.w3.org/1999/xlink" x="0px" y="0px"
	 viewBox="0 0 640 640" style="enable-background:new 0 0 640 640;" xml:space="preserve">
<style type="text/css">
	.st0{fill:#010202;}
</style>
<path class="st0" d="M317.31,577.68c-142.51,0-258.45-115.94-258.45-258.46S174.8,60.77,317.31,60.77
	c142.52,0,258.46,115.94,258.46,258.46S459.82,577.68,317.31,577.68z M317.31,82.52C186.79,82.52,80.6,188.7,80.6,319.22
	c0,130.52,106.19,236.71,236.71,236.71c130.52,0,236.71-106.19,236.71-236.71C554.02,188.7,447.83,82.52,317.31,82.52z"/>
<g>
	<g>
		<path d="M208.55,424.62v-4.38c5.65,0,9.4-0.19,11.25-0.59s3.95-1.27,6.28-2.63c4.48-2.73,6.73-7.9,6.73-15.5v-6.43V236.92
			c0-7.6-2.24-12.76-6.73-15.49c-1.75-1.17-3.85-1.99-6.28-2.49c-2.44-0.48-6.19-0.73-11.25-0.73v-4.38h95.9v4.38
			c-5.65,0-9.41,0.2-11.26,0.59c-1.85,0.39-3.95,1.27-6.28,2.63c-4.49,2.73-6.73,7.89-6.73,15.49v164.6c0,7.6,2.23,12.77,6.68,15.5
			c1.62,0.97,3.33,1.75,5.15,2.34c1.82,0.59,5.96,0.88,12.44,0.88v4.38H208.55z"/>
		<path d="M330.17,424.62v-4.38c5.65,0,9.4-0.19,11.25-0.59c1.85-0.39,3.95-1.27,6.28-2.63c4.48-2.73,6.73-7.9,6.73-15.5v-6.43
			V236.92c0-7.6-2.24-12.76-6.73-15.49c-1.75-1.17-3.84-1.99-6.28-2.49c-2.44-0.48-6.19-0.73-11.25-0.73v-4.38h95.89v4.38
			c-5.65,0-9.41,0.2-11.26,0.59c-1.85,0.39-3.95,1.27-6.28,2.63c-4.49,2.73-6.73,7.89-6.73,15.49v164.6c0,7.6,2.23,12.77,6.68,15.5
			c1.62,0.97,3.33,1.75,5.15,2.34c1.82,0.59,5.96,0.88,12.44,0.88v4.38H330.17z"/>
	</g>
</g>
</svg>
