<?xml version="1.0" encoding="utf-8"?>
<!-- Generator: Adobe Illustrator 24.3.0, SVG Export Plug-In . SVG Version: 6.00 Build 0)  -->
<svg version="1.1" id="Capa_1" xmlns="http://www.w3.org/2000/svg" xmlns:xlink="http://www.w3.org/1999/xlink" x="0px" y="0px"
	 viewBox="0 0 640 640" style="enable-background:new 0 0 640 640;" xml:space="preserve">
<style type="text/css">
	.st0{fill:#010202;}
</style>
<g>
	<path class="st0" d="M320,580.2C176.53,580.2,59.8,463.47,59.8,320C59.8,176.53,176.53,59.8,320,59.8S580.2,176.53,580.2,320
		C580.2,463.47,463.47,580.2,320,580.2z M320,85.83C190.88,85.83,85.84,190.88,85.84,320S190.88,554.17,320,554.17
		c129.12,0,234.16-105.04,234.16-234.16S449.12,85.83,320,85.83z"/>
	<g>
		<g>
			<path d="M267.39,427.96v-4.67c6.02,0,10.02-0.21,12-0.62c1.97-0.42,4.21-1.35,6.7-2.8c4.78-2.91,7.17-8.42,7.17-16.52v-6.86
				V227.86c0-8.1-2.39-13.6-7.17-16.52c-1.87-1.25-4.1-2.13-6.7-2.65c-2.6-0.51-6.6-0.78-12-0.78v-4.67h102.23v4.67
				c-6.03,0-10.03,0.21-12,0.62c-1.97,0.42-4.21,1.35-6.7,2.8c-4.79,2.91-7.17,8.41-7.17,16.52v175.47c0,8.1,2.38,13.61,7.12,16.52
				c1.72,1.04,3.55,1.87,5.49,2.49c1.94,0.62,6.36,0.94,13.26,0.94v4.67H267.39z"/>
		</g>
	</g>
</g>
</svg>
