<?xml version="1.0" encoding="utf-8"?>
<!-- Generator: Adobe Illustrator 24.3.0, SVG Export Plug-In . SVG Version: 6.00 Build 0)  -->
<svg version="1.1" id="Capa_1" xmlns="http://www.w3.org/2000/svg" xmlns:xlink="http://www.w3.org/1999/xlink" x="0px" y="0px"
	 viewBox="0 0 640 640" style="enable-background:new 0 0 640 640;" xml:space="preserve">
<style type="text/css">
	.st0{fill:#010202;}
</style>
<path class="st0" d="M317.49,572.44c-140.46,0-254.73-114.27-254.73-254.73S177.03,62.98,317.49,62.98
	c140.45,0,254.72,114.27,254.72,254.73S457.94,572.44,317.49,572.44z M317.49,83.16c-129.33,0-234.55,105.22-234.55,234.55
	c0,129.33,105.22,234.55,234.55,234.55c129.33,0,234.54-105.22,234.54-234.55C552.03,188.38,446.82,83.16,317.49,83.16z"/>
<g>
	<g>
		<path d="M160.17,415.49v-4.07c5.24,0,8.72-0.18,10.44-0.54s3.66-1.17,5.83-2.44c4.16-2.53,6.24-7.33,6.24-14.38v-5.97V241.35
			c0-7.05-2.08-11.84-6.24-14.37c-1.62-1.09-3.57-1.85-5.83-2.31c-2.26-0.44-5.74-0.68-10.44-0.68v-4.07h88.97v4.07
			c-5.25,0-8.73,0.19-10.45,0.54c-1.72,0.36-3.66,1.17-5.83,2.44c-4.17,2.53-6.24,7.32-6.24,14.37v152.71
			c0,7.05,2.07,11.85,6.19,14.38c1.5,0.9,3.09,1.62,4.78,2.17c1.68,0.54,5.53,0.82,11.54,0.82v4.07H160.17z"/>
		<path d="M273,415.49v-4.07c5.24,0,8.72-0.18,10.44-0.54c1.72-0.36,3.66-1.17,5.83-2.44c4.16-2.53,6.24-7.33,6.24-14.38v-5.97
			V241.35c0-7.05-2.08-11.84-6.24-14.37c-1.62-1.09-3.57-1.85-5.83-2.31c-2.26-0.44-5.74-0.68-10.44-0.68v-4.07h88.97v4.07
			c-5.25,0-8.73,0.19-10.45,0.54c-1.72,0.36-3.66,1.17-5.83,2.44c-4.17,2.53-6.24,7.32-6.24,14.37v152.71
			c0,7.05,2.07,11.85,6.19,14.38c1.5,0.9,3.09,1.62,4.78,2.17c1.68,0.54,5.53,0.82,11.54,0.82v4.07H273z"/>
		<path d="M385.84,415.49v-4.07c5.24,0,8.72-0.18,10.44-0.54c1.72-0.36,3.66-1.17,5.83-2.44c4.16-2.53,6.24-7.33,6.24-14.38v-5.97
			V241.35c0-7.05-2.08-11.84-6.24-14.37c-1.62-1.09-3.57-1.85-5.83-2.31c-2.26-0.44-5.74-0.68-10.44-0.68v-4.07h88.97v4.07
			c-5.25,0-8.73,0.19-10.45,0.54c-1.72,0.36-3.66,1.17-5.83,2.44c-4.17,2.53-6.24,7.32-6.24,14.37v152.71
			c0,7.05,2.07,11.85,6.19,14.38c1.5,0.9,3.09,1.62,4.78,2.17c1.68,0.54,5.53,0.82,11.54,0.82v4.07H385.84z"/>
	</g>
</g>
</svg>
